<svg width="911" height="199" viewBox="0 0 911 199" fill="none" xmlns="http://www.w3.org/2000/svg">
<path fill-rule="evenodd" clip-rule="evenodd" d="M609.704 149.572C613.072 149.572 616.085 150.347 618.744 151.898C621.447 153.405 623.574 155.533 625.125 158.28C626.72 161.027 627.519 164.262 627.519 167.985C627.519 171.751 626.72 175.008 625.125 177.756C623.574 180.503 621.447 182.631 618.744 184.138C616.085 185.644 613.072 186.397 609.704 186.398C606.69 186.398 604.054 185.732 601.794 184.403C600.733 183.779 599.781 183.002 598.935 182.075V198.761H588.566V150.103H598.469V154.238C599.364 153.157 600.404 152.265 601.593 151.565C603.853 150.236 606.557 149.572 609.704 149.572ZM607.909 158.08C606.181 158.08 604.629 158.479 603.255 159.277C601.882 160.074 600.796 161.205 599.999 162.667C599.201 164.13 598.802 165.902 598.802 167.985C598.802 170.023 599.201 171.796 599.999 173.302C600.796 174.765 601.882 175.895 603.255 176.693C604.629 177.49 606.181 177.89 607.909 177.89C609.637 177.89 611.166 177.49 612.495 176.693C613.869 175.895 614.955 174.765 615.753 173.302C616.595 171.796 617.016 170.023 617.016 167.985C617.016 165.902 616.595 164.129 615.753 162.667C614.955 161.205 613.869 160.074 612.495 159.277C611.166 158.479 609.637 158.08 607.909 158.08Z" fill="#7D2248"/>
<path fill-rule="evenodd" clip-rule="evenodd" d="M772.964 149.572C776.332 149.572 779.346 150.347 782.005 151.898C784.708 153.405 786.835 155.533 788.385 158.28C789.981 161.027 790.779 164.262 790.779 167.985C790.779 171.751 789.981 175.008 788.385 177.756C786.835 180.503 784.708 182.631 782.005 184.138C779.346 185.644 776.332 186.398 772.964 186.398C769.951 186.398 767.314 185.732 765.054 184.403C763.993 183.779 763.041 183.002 762.195 182.075V198.761H751.826V150.103H761.73V154.238C762.625 153.157 763.664 152.265 764.854 151.565C767.114 150.236 769.818 149.572 772.964 149.572ZM771.17 158.08C769.441 158.08 767.89 158.479 766.516 159.277C765.142 160.074 764.057 161.205 763.259 162.667C762.462 164.13 762.063 165.902 762.063 167.985C762.063 170.023 762.462 171.796 763.259 173.302C764.057 174.765 765.142 175.895 766.516 176.693C767.89 177.49 769.441 177.89 771.17 177.89C772.898 177.89 774.426 177.49 775.755 176.693C777.129 175.895 778.216 174.765 779.013 173.302C779.855 171.796 780.277 170.023 780.277 167.985C780.277 165.902 779.855 164.129 779.013 162.667C778.216 161.205 777.129 160.074 775.755 159.277C774.426 158.479 772.898 158.08 771.17 158.08Z" fill="#7D2248"/>
<path fill-rule="evenodd" clip-rule="evenodd" d="M535.975 144.12L520.953 147.112C520.067 147.289 519.047 147.533 517.895 147.844C516.787 148.109 515.657 148.531 514.505 149.107C513.397 149.683 512.356 150.502 511.381 151.565C510.45 152.585 509.697 153.937 509.121 155.621C508.787 156.572 508.553 157.656 508.412 158.875C508.621 158.648 508.833 158.427 509.053 158.214C510.604 156.751 512.378 155.643 514.372 154.89C516.411 154.092 518.67 153.693 521.152 153.693C524.52 153.693 527.466 154.38 529.992 155.754C532.563 157.083 534.557 158.967 535.975 161.404C537.393 163.841 538.103 166.611 538.103 169.713C538.103 173.081 537.26 176.05 535.576 178.62C533.892 181.146 531.544 183.119 528.53 184.537C525.561 185.955 522.104 186.664 518.16 186.664C515.236 186.664 512.577 186.243 510.184 185.401C507.791 184.514 505.708 183.162 503.936 181.345C502.208 179.484 500.856 177.113 499.881 174.233C498.951 171.352 498.484 167.918 498.484 163.93C498.484 161.094 498.729 158.501 499.216 156.153C499.703 153.804 500.435 151.676 501.41 149.771C502.385 147.821 503.626 146.116 505.133 144.653C506.684 143.147 508.478 141.905 510.517 140.93C512.599 139.911 514.948 139.136 517.563 138.604L534.58 135.214L535.975 144.12ZM518.626 161.669C516.898 161.669 515.347 162.024 513.973 162.733C512.6 163.398 511.535 164.328 510.782 165.525C510.028 166.721 509.652 168.118 509.652 169.713C509.652 171.352 510.028 172.859 510.782 174.233C511.579 175.562 512.644 176.625 513.973 177.423C515.347 178.221 516.921 178.62 518.693 178.62C520.421 178.62 521.95 178.244 523.279 177.491C524.609 176.693 525.628 175.65 526.337 174.365C527.09 173.036 527.467 171.551 527.467 169.912C527.467 168.317 527.09 166.899 526.337 165.659C525.628 164.418 524.609 163.442 523.279 162.733C521.95 162.024 520.398 161.669 518.626 161.669Z" fill="#7D2248"/>
<path d="M450.323 185.866H439.953V158.611H428.648L428.321 164.927C428.188 168.118 427.922 171.042 427.523 173.701C427.169 176.36 426.57 178.665 425.728 180.615C424.887 182.52 423.756 184.005 422.338 185.068C420.92 186.087 419.103 186.596 416.888 186.596C416.09 186.596 415.248 186.53 414.362 186.398C413.475 186.265 412.522 186.066 411.503 185.8L412.036 177.291C412.301 177.335 412.567 177.379 412.832 177.423H413.564C414.805 177.423 415.78 177.069 416.489 176.36C417.198 175.651 417.729 174.698 418.083 173.501C418.438 172.26 418.682 170.865 418.815 169.314C418.992 167.763 419.125 166.146 419.214 164.462L419.746 150.103H450.323V185.866Z" fill="#7D2248"/>
<path fill-rule="evenodd" clip-rule="evenodd" d="M474.187 149.572C479.638 149.572 483.871 150.857 486.885 153.428C489.898 155.998 491.405 160.008 491.405 165.458V185.866H481.7V181.417C480.919 182.731 479.856 183.794 478.508 184.603C476.514 185.799 473.944 186.397 470.798 186.398C468.006 186.398 465.613 185.932 463.618 185.002C461.624 184.027 460.096 182.719 459.032 181.08C457.969 179.44 457.437 177.601 457.437 175.562C457.437 173.435 457.947 171.573 458.966 169.978C460.03 168.383 461.691 167.143 463.951 166.256C466.211 165.326 469.158 164.861 472.792 164.861H481.034C481.034 162.645 480.347 160.916 478.973 159.676C477.644 158.435 475.583 157.815 472.792 157.815C470.886 157.815 469.002 158.125 467.141 158.745C465.325 159.321 463.774 160.119 462.489 161.138L458.766 153.893C460.716 152.519 463.065 151.455 465.812 150.701C468.559 149.948 471.351 149.572 474.187 149.572ZM473.922 170.91C471.485 170.91 469.8 171.308 468.87 172.105C467.984 172.903 467.54 173.901 467.54 175.097C467.54 176.426 468.051 177.49 469.07 178.287C470.133 179.041 471.574 179.418 473.391 179.418C475.119 179.418 476.669 179.019 478.043 178.221C479.417 177.379 480.414 176.161 481.034 174.565V170.91H473.922Z" fill="#7D2248"/>
<path fill-rule="evenodd" clip-rule="evenodd" d="M561.89 149.572C565.657 149.572 569.024 150.369 571.994 151.964C574.963 153.515 577.289 155.665 578.973 158.413C580.657 161.16 581.5 164.351 581.5 167.985C581.499 171.53 580.657 174.699 578.973 177.491C577.289 180.238 574.962 182.41 571.994 184.005C569.025 185.6 565.656 186.398 561.89 186.398C558.079 186.398 554.689 185.6 551.72 184.005C548.795 182.41 546.468 180.238 544.74 177.491C543.056 174.699 542.214 171.53 542.214 167.985C542.214 164.395 543.056 161.226 544.74 158.479C546.468 155.687 548.795 153.515 551.72 151.964C554.689 150.369 558.079 149.572 561.89 149.572ZM561.89 158.08C560.162 158.08 558.61 158.479 557.236 159.277C555.863 160.074 554.755 161.205 553.913 162.667C553.116 164.129 552.717 165.902 552.717 167.985C552.717 170.023 553.116 171.796 553.913 173.302C554.755 174.765 555.863 175.895 557.236 176.693C558.61 177.49 560.162 177.89 561.89 177.89C563.618 177.89 565.17 177.49 566.543 176.693C567.917 175.895 569.002 174.765 569.8 173.302C570.598 171.796 570.997 170.023 570.997 167.985C570.997 165.902 570.598 164.129 569.8 162.667C569.002 161.205 567.917 160.074 566.543 159.277C565.17 158.479 563.618 158.08 561.89 158.08Z" fill="#7D2248"/>
<path fill-rule="evenodd" clip-rule="evenodd" d="M648.095 149.572C653.546 149.572 657.778 150.857 660.792 153.428C663.804 155.998 665.311 160.008 665.311 165.458V185.866H655.607V181.417C654.826 182.731 653.763 183.794 652.415 184.603C650.421 185.799 647.851 186.397 644.705 186.398C641.913 186.398 639.519 185.932 637.525 185.002C635.531 184.027 634.003 182.719 632.939 181.08C631.875 179.44 631.343 177.601 631.343 175.562C631.343 173.435 631.854 171.573 632.873 169.978C633.936 168.383 635.598 167.143 637.858 166.256C640.118 165.326 643.065 164.861 646.698 164.861H654.941C654.941 162.645 654.254 160.916 652.88 159.676C651.551 158.435 649.49 157.815 646.698 157.815C644.793 157.815 642.909 158.125 641.048 158.745C639.231 159.321 637.681 160.119 636.396 161.138L632.673 153.893C634.622 152.519 636.971 151.455 639.719 150.701C642.466 149.948 645.259 149.572 648.095 149.572ZM647.829 170.91C645.392 170.91 643.707 171.308 642.776 172.105C641.89 172.903 641.447 173.901 641.447 175.097C641.447 176.426 641.957 177.49 642.977 178.287C644.04 179.041 645.48 179.418 647.297 179.418C649.025 179.418 650.576 179.019 651.95 178.221C653.323 177.379 654.321 176.161 654.941 174.565V170.91H647.829Z" fill="#7D2248"/>
<path fill-rule="evenodd" clip-rule="evenodd" d="M725.15 149.572C728.917 149.572 732.285 150.369 735.254 151.964C738.223 153.515 740.55 155.665 742.234 158.413C743.918 161.16 744.76 164.351 744.76 167.985C744.76 171.53 743.918 174.699 742.234 177.491C740.55 180.238 738.223 182.41 735.254 184.005C732.285 185.6 728.917 186.398 725.15 186.398C721.34 186.398 717.949 185.6 714.98 184.005C712.056 182.41 709.729 180.238 708.001 177.491C706.317 174.699 705.475 171.53 705.475 167.985C705.475 164.395 706.317 161.226 708.001 158.479C709.729 155.687 712.056 153.515 714.98 151.964C717.949 150.369 721.339 149.572 725.15 149.572ZM725.15 158.08C723.422 158.08 721.871 158.479 720.497 159.277C719.123 160.074 718.016 161.205 717.174 162.667C716.376 164.129 715.977 165.902 715.977 167.985C715.977 170.023 716.376 171.796 717.174 173.302C718.016 174.765 719.123 175.895 720.497 176.693C721.871 177.49 723.422 177.89 725.15 177.89C726.879 177.89 728.43 177.49 729.804 176.693C731.178 175.895 732.263 174.765 733.061 173.302C733.858 171.796 734.257 170.023 734.257 167.985C734.257 165.902 733.858 164.129 733.061 162.667C732.263 161.205 731.178 160.074 729.804 159.277C728.43 158.479 726.879 158.08 725.15 158.08Z" fill="#7D2248"/>
<path d="M704.364 158.611H692.267V185.866H681.963V158.611H669.866V150.103H704.364V158.611Z" fill="#7D2248"/>
<path d="M808.349 171.375L825.766 150.103H835.272V185.866H824.968V164.594L807.619 185.866H798.047V150.103H808.349V171.375Z" fill="#7D2248"/>
<path fill-rule="evenodd" clip-rule="evenodd" d="M877.013 185.866H867.773V175.628H860.141L853.349 185.866H842.315L850.464 174.183C849.269 173.714 848.191 173.135 847.233 172.438C844.309 170.311 842.846 167.253 842.846 163.265C842.846 159.011 844.376 155.754 847.434 153.494C850.536 151.234 854.701 150.103 859.93 150.103H877.013V185.866ZM860.13 158.545C858.003 158.545 856.34 158.944 855.144 159.742C853.992 160.54 853.415 161.825 853.415 163.598C853.415 167.01 855.609 168.716 859.996 168.716H867.773V158.545H860.13Z" fill="#7D2248"/>
<path fill-rule="evenodd" clip-rule="evenodd" d="M311.355 6.38893C321.284 6.38893 329.413 8.11666 335.744 11.5699C342.219 14.8793 346.968 19.7714 349.989 26.2461C353.155 32.7209 354.809 40.6349 354.952 49.9873V51.4979C355.096 51.9294 355.169 52.3607 355.169 52.7922H327.542C327.542 44.8787 326.463 38.9071 324.305 34.8784C322.29 30.8501 318.046 28.836 311.572 28.8359C307.687 28.8359 304.521 30.059 302.075 32.5049C299.629 34.8071 297.83 38.6198 296.679 43.9435C295.528 49.2672 294.952 56.3178 294.952 65.0948V87.109C297.111 83.7998 300.205 81.1375 304.234 79.1232C308.406 77.109 313.299 76.1019 318.91 76.1019C328.406 75.9581 335.888 78.0445 341.356 82.3608C346.823 86.5335 350.708 92.4336 353.01 100.06C355.456 107.685 356.679 116.463 356.679 126.391C356.679 137.614 355.24 147.686 352.363 156.607C349.485 165.528 344.736 172.577 338.118 177.757C331.643 182.793 322.795 185.311 311.572 185.312C300.924 185.312 292.291 182.793 285.672 177.757C279.053 172.721 274.162 165.887 270.996 157.254C267.975 148.477 266.463 138.693 266.463 127.901V67.2532C266.463 55.8862 267.758 45.6702 270.348 36.6054C272.938 27.3968 277.47 20.0588 283.945 14.5912C290.564 9.1235 299.701 6.38893 311.355 6.38893ZM311.572 97.6847C308.982 97.6847 306.607 98.1882 304.449 99.1954C302.291 100.059 300.42 101.282 298.838 102.864C297.255 104.303 295.96 105.815 294.952 107.398V134.592C294.952 139.627 295.456 144.376 296.463 148.836C297.47 153.153 299.197 156.607 301.643 159.197C304.089 161.787 307.47 163.081 311.787 163.081C316.103 163.081 319.413 161.786 321.715 159.197C324.161 156.463 325.816 152.794 326.679 148.19C327.543 143.442 327.975 138.045 327.975 132.002C327.975 125.671 327.686 119.915 327.111 114.736C326.679 109.412 325.312 105.24 323.01 102.218C320.852 99.1964 317.039 97.6848 311.572 97.6847Z" fill="#7D2248"/>
<path d="M390.915 189.208H380.572V0.649414H390.915V189.208Z" fill="#7D2248"/>
<path fill-rule="evenodd" clip-rule="evenodd" d="M79.8573 30.7779H30.2165V81.498H36.6904C48.7768 81.498 58.778 83.1532 66.6918 86.4626C74.7491 89.6281 80.7919 94.88 84.8206 102.218C88.9932 109.556 91.0794 119.556 91.0794 132.218C91.0794 142.002 89.8565 150.132 87.4104 156.607C84.9644 163.082 81.3678 168.334 76.6197 172.362C72.0153 176.247 66.2589 179.053 59.3524 180.78C52.59 182.362 44.8205 183.153 36.0439 183.153H0V8.33231H79.8573V30.7779ZM30.2165 162.435H36.2589C42.5899 162.435 47.698 161.57 51.5829 159.843C55.6117 158.117 58.4899 155.024 60.2165 150.563C61.9431 146.103 62.8063 139.844 62.8064 131.787C62.8064 122.003 60.9362 114.736 57.1953 109.987C53.4543 105.239 46.3312 102.864 35.8275 102.864H30.2165V162.435Z" fill="#7D2248"/>
<path d="M142.357 6.38893C157.177 6.38901 168.256 10.4177 175.594 18.4752C182.933 26.5329 186.601 37.6846 186.601 51.9293C186.601 59.2673 185.595 65.8859 183.58 71.7851C181.566 77.5405 178.975 83.0084 175.809 88.1882C172.644 93.3681 169.191 98.7648 165.45 104.376L128.543 160.06H182.285V183.153H96.1685V163.081L139.55 95.7427C142.86 90.7067 145.882 85.9584 148.616 81.498C151.493 77.0375 153.796 72.4329 155.522 67.6847C157.393 62.9365 158.327 57.6122 158.327 51.7129C158.327 44.8067 157.104 39.4835 154.658 35.7426C152.356 32.0017 148.616 30.1303 143.436 30.1301C138.544 30.1301 134.73 31.4981 131.996 34.2319C129.406 36.8219 127.608 40.3475 126.601 44.8076C125.594 49.1239 125.089 53.8716 125.089 59.051V65.9577H97.2477V58.6196C97.2477 48.1161 98.6868 38.9791 101.565 31.2094C104.586 23.4397 109.407 17.3971 116.026 13.0806C122.788 8.62017 131.565 6.38893 142.357 6.38893Z" fill="#7D2248"/>
<path d="M252.464 183.153H224.191V40.7058C223.328 41.1375 221.601 41.786 219.012 42.6492C216.422 43.3687 213.471 44.1594 210.161 45.0227C206.996 45.7421 204.047 46.4617 201.313 47.1811C198.724 47.9003 197.069 48.4039 196.35 48.6917V27.5403C198.364 26.821 200.882 25.8863 203.903 24.7355C207.068 23.4405 210.306 22.0014 213.615 20.4186C217.069 18.836 220.306 17.0369 223.327 15.0226C226.348 12.8645 228.795 10.6343 230.665 8.33231H252.464V183.153Z" fill="#7D2248"/>
<path fill-rule="evenodd" clip-rule="evenodd" d="M472.669 83.0992C476.036 83.0992 479.05 83.8743 481.709 85.4253C484.412 86.932 486.539 89.0598 488.09 91.8072C489.685 94.5547 490.484 97.7896 490.484 101.512C490.484 105.279 489.685 108.536 488.09 111.283C486.539 114.03 484.412 116.158 481.709 117.665C479.05 119.172 476.036 119.925 472.669 119.925C469.655 119.925 467.019 119.259 464.758 117.93C463.698 117.306 462.746 116.529 461.9 115.603V132.288H451.531V83.6307H461.434V87.765C462.329 86.6847 463.369 85.7924 464.558 85.0926C466.818 83.7632 469.522 83.0992 472.669 83.0992ZM470.874 91.6071C469.146 91.6071 467.594 92.0063 466.22 92.804C464.847 93.6016 463.761 94.7321 462.964 96.1944C462.166 97.6568 461.767 99.4293 461.767 101.512C461.767 103.55 462.166 105.323 462.964 106.83C463.761 108.292 464.847 109.422 466.22 110.22C467.594 111.018 469.146 111.417 470.874 111.417C472.602 111.417 474.131 111.018 475.46 110.22C476.834 109.422 477.92 108.292 478.718 106.83C479.56 105.323 479.981 103.55 479.981 101.512C479.981 99.4294 479.56 97.6567 478.718 96.1944C477.92 94.732 476.834 93.6016 475.46 92.804C474.131 92.0064 472.602 91.6071 470.874 91.6071Z" fill="#7D2248"/>
<path fill-rule="evenodd" clip-rule="evenodd" d="M732.847 83.0992C736.215 83.0992 739.229 83.8743 741.888 85.4253C744.591 86.932 746.717 89.0598 748.268 91.8072C749.863 94.5547 750.662 97.7896 750.662 101.512C750.662 105.279 749.863 108.536 748.268 111.283C746.717 114.03 744.591 116.158 741.888 117.665C739.229 119.172 736.215 119.925 732.847 119.925C729.833 119.925 727.197 119.259 724.937 117.93C723.876 117.306 722.924 116.529 722.078 115.603V132.288H711.709V83.6307H721.613V87.765C722.507 86.6847 723.547 85.7924 724.737 85.0926C726.997 83.7632 729.701 83.0992 732.847 83.0992ZM731.052 91.6071C729.324 91.6071 727.772 92.0063 726.399 92.804C725.025 93.6016 723.94 94.7321 723.142 96.1944C722.344 97.6568 721.945 99.4293 721.945 101.512C721.945 103.55 722.344 105.323 723.142 106.83C723.94 108.292 725.025 109.422 726.399 110.22C727.772 111.018 729.324 111.417 731.052 111.417C732.78 111.417 734.309 111.018 735.638 110.22C737.012 109.422 738.099 108.292 738.896 106.83C739.738 105.323 740.159 103.55 740.159 101.512C740.159 99.4294 739.738 97.6567 738.896 96.1944C738.099 94.732 737.012 93.6016 735.638 92.804C734.309 92.0064 732.78 91.6071 731.052 91.6071Z" fill="#7D2248"/>
<path fill-rule="evenodd" clip-rule="evenodd" d="M511.059 83.0992C516.51 83.0992 520.743 84.3846 523.756 86.9549C526.769 89.5251 528.276 93.5354 528.276 98.9857V119.393H518.571V114.944C517.79 116.259 516.728 117.322 515.38 118.13C513.386 119.326 510.816 119.925 507.67 119.925C504.878 119.925 502.484 119.46 500.49 118.529C498.496 117.554 496.968 116.247 495.904 114.607C494.84 112.968 494.308 111.128 494.308 109.089C494.308 106.962 494.819 105.101 495.838 103.505C496.901 101.91 498.563 100.67 500.823 99.7836C503.083 98.8531 506.03 98.388 509.663 98.388H517.906C517.906 96.1722 517.219 94.4437 515.845 93.2029C514.516 91.9622 512.455 91.342 509.663 91.342C507.758 91.3421 505.874 91.6521 504.013 92.2725C502.196 92.8485 500.646 93.6458 499.361 94.6648L495.638 87.4201C497.587 86.0464 499.936 84.9818 502.684 84.2284C505.431 83.4752 508.223 83.0993 511.059 83.0992ZM510.794 104.437C508.356 104.437 506.672 104.835 505.741 105.633C504.855 106.43 504.412 107.428 504.412 108.624C504.412 109.954 504.922 111.017 505.941 111.815C507.005 112.568 508.445 112.945 510.262 112.945C511.99 112.945 513.541 112.546 514.915 111.748C516.288 110.906 517.286 109.688 517.906 108.093V104.437H510.794Z" fill="#7D2248"/>
<path d="M600.456 83.0992C604.222 83.0993 607.502 83.8964 610.293 85.4916C613.085 87.0426 615.146 89.2814 616.475 92.2062L608.432 96.5257C607.502 94.8421 606.327 93.6016 604.909 92.804C603.536 92.0063 602.028 91.6071 600.388 91.6071C598.616 91.6072 597.021 92.0066 595.604 92.804C594.185 93.6016 593.055 94.732 592.213 96.1944C591.416 97.6568 591.016 99.4293 591.016 101.512C591.016 103.595 591.415 105.367 592.213 106.83C593.055 108.292 594.186 109.422 595.604 110.22C597.021 111.017 598.616 111.417 600.388 111.417C602.028 111.417 603.536 111.04 604.909 110.286C606.327 109.489 607.502 108.225 608.432 106.497L616.475 110.884C615.146 113.765 613.085 116.003 610.293 117.599C607.502 119.15 604.222 119.925 600.456 119.925C596.601 119.925 593.166 119.15 590.152 117.599C587.139 116.003 584.768 113.81 583.04 111.018C581.356 108.226 580.514 105.057 580.514 101.512C580.514 97.9225 581.356 94.7536 583.04 92.0061C584.768 89.2143 587.139 87.0426 590.152 85.4916C593.166 83.8963 596.601 83.0992 600.456 83.0992Z" fill="#7D2248"/>
<path fill-rule="evenodd" clip-rule="evenodd" d="M685.033 83.0992C688.8 83.0992 692.168 83.8963 695.137 85.4916C698.106 87.0426 700.433 89.1923 702.117 91.9398C703.8 94.6873 704.643 97.8782 704.643 101.512C704.643 105.057 703.8 108.226 702.117 111.018C700.433 113.765 698.106 115.936 695.137 117.531C692.168 119.126 688.8 119.925 685.033 119.925C681.222 119.925 677.832 119.126 674.863 117.531C671.939 115.936 669.612 113.765 667.883 111.018C666.2 108.226 665.357 105.057 665.357 101.512C665.357 97.9225 666.2 94.7536 667.883 92.0061C669.612 89.2143 671.938 87.0426 674.863 85.4916C677.832 83.8964 681.222 83.0992 685.033 83.0992ZM685.033 91.6071C683.305 91.6071 681.753 92.0063 680.38 92.804C679.006 93.6016 677.899 94.7321 677.057 96.1944C676.259 97.6568 675.86 99.4293 675.86 101.512C675.86 103.55 676.259 105.323 677.057 106.83C677.899 108.292 679.006 109.422 680.38 110.22C681.753 111.018 683.305 111.417 685.033 111.417C686.761 111.417 688.313 111.018 689.687 110.22C691.06 109.422 692.146 108.292 692.943 106.83C693.741 105.323 694.14 103.55 694.14 101.512C694.14 99.4293 693.741 97.6567 692.943 96.1944C692.146 94.7321 691.06 93.6016 689.687 92.804C688.313 92.0063 686.761 91.6071 685.033 91.6071Z" fill="#7D2248"/>
<path fill-rule="evenodd" clip-rule="evenodd" d="M852.251 83.0992C857.702 83.0992 861.935 84.3846 864.948 86.9549C867.961 89.5251 869.468 93.5354 869.468 98.9857V119.393H859.763V114.944C858.982 116.259 857.919 117.322 856.572 118.13C854.578 119.326 852.008 119.925 848.862 119.925C846.07 119.925 843.676 119.46 841.682 118.529C839.688 117.554 838.159 116.247 837.096 114.607C836.032 112.968 835.5 111.128 835.5 109.089C835.5 106.962 836.01 105.101 837.03 103.505C838.093 101.91 839.755 100.67 842.015 99.7836C844.275 98.8531 847.221 98.388 850.855 98.388H859.098C859.098 96.1722 858.411 94.4437 857.037 93.2029C855.707 91.9622 853.647 91.342 850.855 91.342C848.95 91.3421 847.066 91.6521 845.205 92.2725C843.388 92.8485 841.838 93.6458 840.553 94.6648L836.829 87.4201C838.779 86.0464 841.128 84.9818 843.875 84.2284C846.623 83.4751 849.415 83.0993 852.251 83.0992ZM851.986 104.437C849.548 104.437 847.864 104.835 846.933 105.633C846.047 106.43 845.604 107.428 845.604 108.624C845.604 109.954 846.114 111.017 847.133 111.815C848.197 112.568 849.637 112.945 851.454 112.945C853.182 112.945 854.733 112.546 856.106 111.748C857.48 110.906 858.478 109.688 859.098 108.093V104.437H851.986Z" fill="#7D2248"/>
<path d="M446.068 92.1386H433.971V119.393H423.667V92.1386H411.57V83.6307H446.068V92.1386Z" fill="#7D2248"/>
<path d="M547.587 97.5901H563.142V83.6307H573.512V119.393H563.142V106.032H547.587V119.393H537.284V83.6307H547.587V97.5901Z" fill="#7D2248"/>
<path d="M658.34 119.393H647.97V92.1386H633.08V119.393H622.777V83.6307H658.34V119.393Z" fill="#7D2248"/>
<path d="M786.676 92.1386H774.579V119.393H764.275V92.1386H752.178V83.6307H786.676V92.1386Z" fill="#7D2248"/>
<path d="M802.507 97.5901H818.062V83.6307H828.432V119.393H818.062V106.032H802.507V119.393H792.205V83.6307H802.507V97.5901Z" fill="#7D2248"/>
<path fill-rule="evenodd" clip-rule="evenodd" d="M910.249 119.393H901.01V109.156H893.377L886.585 119.393H875.551L883.701 107.71C882.505 107.242 881.427 106.662 880.47 105.965C877.545 103.838 876.083 100.78 876.083 96.7922C876.083 92.5379 877.612 89.2812 880.67 87.0211C883.772 84.7612 887.937 83.6307 893.166 83.6307H910.249V119.393ZM893.366 92.0723C891.239 92.0723 889.576 92.4715 888.38 93.2692C887.228 94.0669 886.652 95.3524 886.652 97.1248C886.652 100.537 888.846 102.243 893.232 102.244H901.01V92.0723H893.366Z" fill="#7D2248"/>
<path d="M668.826 52.9206H658.456V25.6659H647.151L646.824 31.9816C646.691 35.1722 646.425 38.097 646.026 40.7559C645.672 43.4148 645.073 45.7195 644.232 47.6693C643.39 49.5747 642.259 51.0592 640.841 52.1227C639.423 53.1418 637.606 53.6509 635.391 53.6509C634.593 53.6509 633.751 53.5851 632.865 53.4521C631.978 53.3192 631.025 53.1203 630.006 52.8544L630.539 44.3451C630.804 44.3894 631.07 44.4334 631.335 44.4777H632.067C633.308 44.4777 634.283 44.1237 634.992 43.4147C635.701 42.7057 636.232 41.7521 636.586 40.5557C636.941 39.3151 637.185 37.9195 637.318 36.3687C637.495 34.8178 637.628 33.2002 637.717 31.5163L638.249 17.158H668.826V52.9206Z" fill="#7D2248"/>
<path fill-rule="evenodd" clip-rule="evenodd" d="M478.991 16.6265C484.442 16.6265 488.675 17.9119 491.689 20.4822C494.702 23.0525 496.208 27.0627 496.208 32.5131V52.9206H486.504V48.4713C485.723 49.7859 484.66 50.8489 483.312 51.6575C481.318 52.8538 478.748 53.4521 475.602 53.4521C472.81 53.4521 470.416 52.9871 468.422 52.0565C466.428 51.0816 464.9 49.774 463.836 48.1345C462.773 46.4949 462.24 44.6553 462.24 42.6168C462.24 40.4897 462.751 38.628 463.77 37.0327C464.833 35.4377 466.495 34.1972 468.755 33.311C471.015 32.3804 473.962 31.9153 477.595 31.9153H485.838C485.838 29.6995 485.151 27.9711 483.777 26.7302C482.448 25.4896 480.387 24.8693 477.595 24.8693C475.69 24.8694 473.806 25.1794 471.945 25.7998C470.129 26.3758 468.578 27.1732 467.293 28.1922L463.57 20.9474C465.519 19.5737 467.868 18.5091 470.616 17.7558C473.363 17.0025 476.155 16.6266 478.991 16.6265ZM478.726 37.9645C476.289 37.9645 474.604 38.3624 473.673 39.1601C472.787 39.9577 472.344 40.9551 472.344 42.1516C472.344 43.481 472.854 44.5442 473.874 45.3418C474.937 46.0952 476.378 46.4724 478.194 46.4724C479.923 46.4724 481.473 46.0731 482.847 45.2756C484.22 44.4336 485.218 43.2153 485.838 41.6201V37.9645H478.726Z" fill="#7D2248"/>
<path fill-rule="evenodd" clip-rule="evenodd" d="M608.303 16.6265C613.753 16.6266 617.985 17.912 620.999 20.4822C624.012 23.0525 625.518 27.0627 625.518 32.5131V52.9206H615.814V48.4713C615.033 49.7859 613.97 50.8489 612.622 51.6575C610.628 52.8538 608.058 53.4521 604.912 53.4521C602.12 53.4521 599.726 52.9871 597.732 52.0565C595.738 51.0816 594.21 49.774 593.146 48.1345C592.083 46.4949 591.55 44.6553 591.55 42.6168C591.551 40.4897 592.061 38.628 593.08 37.0327C594.144 35.4377 595.805 34.1972 598.065 33.311C600.325 32.3804 603.272 31.9153 606.906 31.9153H615.148C615.148 29.6995 614.461 27.9711 613.087 26.7302C611.758 25.4896 609.697 24.8693 606.906 24.8693C605 24.8694 603.116 25.1794 601.255 25.7998C599.439 26.3758 597.888 27.1732 596.603 28.1922L592.88 20.9474C594.83 19.5737 597.178 18.5091 599.926 17.7558C602.673 17.0024 605.466 16.6265 608.303 16.6265ZM608.036 37.9645C605.599 37.9645 603.914 38.3624 602.984 39.1601C602.097 39.9577 601.654 40.9551 601.654 42.1516C601.654 43.481 602.165 44.5442 603.184 45.3418C604.247 46.0952 605.688 46.4724 607.505 46.4724C609.233 46.4724 610.783 46.0731 612.157 45.2756C613.531 44.4336 614.528 43.2153 615.148 41.6201V37.9645H608.036Z" fill="#7D2248"/>
<path d="M736.063 16.6265C739.829 16.6266 743.109 17.4237 745.9 19.0189C748.692 20.5699 750.752 22.8087 752.082 25.7335L744.039 30.0531C743.109 28.3694 741.934 27.1289 740.516 26.3313C739.143 25.5336 737.635 25.1344 735.995 25.1344C734.223 25.1345 732.628 25.5339 731.21 26.3313C729.792 27.1289 728.662 28.2593 727.82 29.7217C727.022 31.1841 726.623 32.9566 726.623 35.0393C726.623 37.1221 727.022 38.8946 727.82 40.3569C728.662 41.8193 729.792 42.9497 731.21 43.7474C732.628 44.5447 734.223 44.9441 735.995 44.9442C737.635 44.9442 739.143 44.567 740.516 43.8136C741.934 43.016 743.109 41.7525 744.039 40.0242L752.082 44.4114C750.752 47.2919 748.692 49.5307 745.9 51.126C743.109 52.6769 739.829 53.4521 736.063 53.4521C732.208 53.4521 728.772 52.677 725.759 51.126C722.746 49.5308 720.375 47.3369 718.647 44.5453C716.963 41.7535 716.121 38.5845 716.121 35.0393C716.121 31.4498 716.963 28.2809 718.647 25.5334C720.375 22.7416 722.746 20.5699 725.759 19.0189C728.772 17.4236 732.207 16.6265 736.063 16.6265Z" fill="#7D2248"/>
<path fill-rule="evenodd" clip-rule="evenodd" d="M814.276 16.6265C819.726 16.6265 823.96 17.9119 826.973 20.4822C829.986 23.0525 831.493 27.0628 831.493 32.5131V52.9206H821.788V48.4713C821.007 49.7859 819.944 50.8489 818.597 51.6575C816.603 52.8538 814.032 53.4521 810.887 53.4521C808.095 53.4521 805.701 52.9871 803.707 52.0565C801.713 51.0816 800.184 49.774 799.121 48.1345C798.057 46.4949 797.525 44.6553 797.525 42.6168C797.525 40.4897 798.035 38.628 799.055 37.0327C800.118 35.4377 801.78 34.1972 804.039 33.311C806.299 32.3804 809.246 31.9153 812.88 31.9153H821.123C821.123 29.6995 820.436 27.9711 819.062 26.7302C817.732 25.4896 815.672 24.8693 812.88 24.8693C810.975 24.8694 809.091 25.1794 807.23 25.7998C805.413 26.3758 803.862 27.1732 802.577 28.1922L798.854 20.9474C800.804 19.5737 803.153 18.5091 805.9 17.7558C808.648 17.0025 811.44 16.6266 814.276 16.6265ZM814.011 37.9645C811.573 37.9645 809.889 38.3624 808.958 39.1601C808.072 39.9577 807.629 40.9551 807.629 42.1516C807.629 43.481 808.139 44.5442 809.158 45.3418C810.222 46.0952 811.662 46.4724 813.479 46.4724C815.207 46.4724 816.758 46.0731 818.131 45.2756C819.505 44.4336 820.502 43.2153 821.123 41.6201V37.9645H814.011Z" fill="#7D2248"/>
<path fill-rule="evenodd" clip-rule="evenodd" d="M689.101 28.5911H698.142C702.839 28.6354 706.406 29.699 708.843 31.7814C711.325 33.8198 712.566 36.7229 712.566 40.4895C712.566 44.4335 711.17 47.5132 708.378 49.729C705.586 51.9004 701.709 52.9869 696.746 52.9869L678.799 52.9206V17.158H689.101V28.5911ZM689.101 45.6083H695.816C697.81 45.6525 699.338 45.2314 700.402 44.3451C701.465 43.4588 701.997 42.1295 701.997 40.3569C701.997 38.5843 701.465 37.3209 700.402 36.5675C699.338 35.7701 697.809 35.3488 695.816 35.3044L689.101 35.2381V45.6083Z" fill="#7D2248"/>
<path fill-rule="evenodd" clip-rule="evenodd" d="M454.378 14.9644H427.523V24.5367H440.418C446.046 24.5367 450.323 25.7109 453.248 28.0596C456.217 30.4083 457.702 33.8204 457.702 38.2959C457.702 42.9046 456.062 46.4947 452.783 49.065C449.504 51.6352 444.872 52.9206 438.89 52.9206H416.822V6.38893H454.378V14.9644ZM427.523 44.9442H438.292C441.039 44.9442 443.144 44.4118 444.607 43.3484C446.069 42.2406 446.8 40.6451 446.8 38.5623C446.8 34.4854 443.964 32.4469 438.292 32.4468H427.523V44.9442Z" fill="#7D2248"/>
<path d="M515.519 38.4298L532.935 17.158H542.441V52.9206H532.137V31.6489L514.789 52.9206H505.217V17.158H515.519V38.4298Z" fill="#7D2248"/>
<path d="M562.778 31.0511H568.379L578.067 17.158H589.103L576.605 34.3172L589.967 52.9206H577.736L568.164 39.3602H562.778V52.9206H552.41V17.158H562.778V31.0511Z" fill="#7D2248"/>
<path d="M768.753 31.0511H774.353L784.042 17.158H795.077L782.58 34.3172L795.941 52.9206H783.71L774.138 39.3602H768.753V52.9206H758.384V17.158H768.753V31.0511Z" fill="#7D2248"/>
<path fill-rule="evenodd" clip-rule="evenodd" d="M872.274 52.9206H863.035V42.683H855.402L848.61 52.9206H837.576L845.726 41.2373C844.53 40.7689 843.452 40.1892 842.495 39.4927C839.57 37.3656 838.107 34.3077 838.107 30.3195C838.108 26.0653 839.637 22.8085 842.695 20.5485C845.797 18.2885 849.962 17.1581 855.191 17.158H872.274V52.9206ZM855.391 25.5996C853.264 25.5996 851.601 25.9988 850.405 26.7965C849.253 27.5942 848.676 28.8797 848.676 30.6522C848.677 34.0641 850.87 35.7708 855.257 35.771H863.035V25.5996H855.391Z" fill="#7D2248"/>
<path d="M518.178 2.99984C518.222 4.50629 518.643 5.70289 519.441 6.58908C520.239 7.47538 521.458 7.91848 523.098 7.91848C524.693 7.91838 525.912 7.47521 526.753 6.58908C527.64 5.70289 528.083 4.5063 528.083 2.99984H534.996C534.996 6.45599 533.999 9.04788 532.005 10.7761C530.011 12.46 527.064 13.3023 523.164 13.3023C519.264 13.3023 516.34 12.4601 514.39 10.7761C512.44 9.04788 511.443 6.45613 511.398 2.99984H518.178Z" fill="#7D2248"/>
</svg>
